<svg width="50" height="33" viewBox="0 0 50 33" fill="none" xmlns="http://www.w3.org/2000/svg">
<g id="319">
<g id="New Icons">
<g id="Card Brands">
<g id="Color">
<g id="Visa">
<path id="Container" d="M45.3122 0.515625H4.68717C2.38599 0.515625 0.520508 2.36245 0.520508 4.64062V28.3594C0.520508 30.6376 2.38599 32.4844 4.68717 32.4844H45.3122C47.6134 32.4844 49.4788 30.6376 49.4788 28.3594V4.64062C49.4788 2.36245 47.6134 0.515625 45.3122 0.515625Z" fill="white" stroke="black" stroke-opacity="0.2" stroke-width="0.5"/>
<path id="Shape" d="M5.80745 12.1985C4.71757 11.6067 3.47371 11.1308 2.08301 10.8005L2.14134 10.5433H7.84338C8.61626 10.5701 9.24341 10.8003 9.44748 11.6133L10.6867 17.4623L11.0663 19.224L14.5371 10.5433H18.2847L12.714 23.2599H8.96627L5.80745 12.1985ZM21.0413 23.2734H17.4972L19.7139 10.5433H23.2578L21.0413 23.2734ZM33.8888 10.8545L33.4068 13.6034L33.0863 13.4682C32.445 13.2108 31.5985 12.9536 30.4463 12.9808C29.0471 12.9808 28.4195 13.5357 28.405 14.0775C28.405 14.6735 29.1641 15.0662 30.4037 15.6487C32.4456 16.5561 33.3927 17.6665 33.3785 19.1156C33.3498 21.7566 30.9289 23.4631 27.2102 23.4631C25.6202 23.4494 24.0888 23.1373 23.2576 22.7856L23.7535 19.928L24.2202 20.1314C25.3724 20.6058 26.1305 20.8085 27.5455 20.8085C28.5658 20.8085 29.6599 20.4154 29.6738 19.5626C29.6738 19.0073 29.2077 18.6007 27.8366 17.9777C26.4951 17.368 24.7014 16.3525 24.7305 14.5241C24.7456 12.0459 27.2102 10.3125 30.7101 10.3125C32.081 10.3125 33.1898 10.5969 33.8888 10.8545ZM38.5992 18.7636H41.5449C41.3992 18.1271 40.7281 15.0799 40.7281 15.0799L40.4804 13.983C40.3054 14.4569 39.9994 15.229 40.0141 15.2018C40.0141 15.2018 38.891 18.0322 38.5992 18.7636ZM42.9738 10.5433L45.833 23.2732H42.5516C42.5516 23.2732 42.2304 21.8106 42.1287 21.3636H37.5784C37.4468 21.702 36.8346 23.2732 36.8346 23.2732H33.1159L38.3802 11.5995C38.7449 10.7733 39.3872 10.5433 40.2325 10.5433H42.9738Z" fill="#171E6C"/>
</g>
</g>
</g>
</g>
</g>
</svg>
